<?xml version="1.0" encoding="utf-8"?>
<!-- Generator: Adobe Illustrator 18.1.0, SVG Export Plug-In . SVG Version: 6.00 Build 0)  -->
<!DOCTYPE svg PUBLIC "-//W3C//DTD SVG 1.1//EN" "http://www.w3.org/Graphics/SVG/1.1/DTD/svg11.dtd">
<svg version="1.1" id="Layer_1" xmlns="http://www.w3.org/2000/svg" xmlns:xlink="http://www.w3.org/1999/xlink" x="0px" y="0px"
	 viewBox="0 0 89 63.5" enable-background="new 0 0 89 63.5" xml:space="preserve">
<path fill="#655046" d="M83.9,15.3c-14.1,2.5-26.1,4.2-36.7,10.6c-1,0.6-1.9,1.2-2.7,1.8c-0.7-0.6-1.6-1.2-2.7-1.8
	c-10.6-6.4-22.7-8.1-36.7-10.6c-3-0.5-5.3,0.2-5.1,1.6c1.7,12.2,3.9,24.4,5.8,36.7c0.2,1.3,2.3,2.7,4.5,3.1c10.3,1.8,20.4,4,30.5,6
	c1.6,0.4,2.8,0.5,3.6,0.4c0.8,0.1,2,0,3.6-0.4c10.2-2,20.2-4.2,30.5-6c2.2-0.4,4.3-1.8,4.5-3.1C85,41.3,87.3,29.1,89,16.9
	C89.2,15.5,86.8,14.8,83.9,15.3z"/>
<path opacity="0.2" d="M83.4,14.7c-1.5,12.4-3.2,24.7-4.8,37c-0.2,1.5-2,3-4,3.4c-9.1,1.9-18,4.4-27,6.5c-1.4,0.4-2.5,0.6-3.2,0.4
	c-0.7,0.1-1.8,0-3.2-0.4c-9-2.2-17.9-4.6-27-6.5c-2-0.4-3.8-1.9-4-3.4C8.8,39.4,7,27.1,5.6,14.7c-2,0-3.3,0.7-3.2,1.8
	C4,28.8,6.1,41,7.9,53.3c0.2,1.4,2.1,2.7,4.3,3.1c9.7,1.8,19.3,4,28.9,6c1.5,0.4,2.7,0.5,3.4,0.4c0.8,0.1,1.9,0,3.4-0.4
	c9.6-2,19.2-4.2,28.9-6c2.1-0.4,4.1-1.8,4.3-3.1C82.9,41,85,28.8,86.6,16.5C86.8,15.4,85.4,14.7,83.4,14.7z"/>
<path fill="#EFECE4" d="M81.2,9.5C68.1,12.2,56.8,14.1,47,21c-1,0.6-1.8,1.3-2.5,2c-0.7-0.7-1.5-1.3-2.5-2
	c-9.9-6.9-21.1-8.8-34.2-11.5C5,9,2.9,9.8,3,11.2C4.6,24.5,6.7,37.8,8.5,51c0.2,1.5,2.1,3,4.2,3.4c9.6,1.9,19,4.3,28.5,6.5
	c1.5,0.4,2.6,0.6,3.4,0.4c0.7,0.1,1.9,0,3.4-0.4c9.5-2.2,18.9-4.6,28.5-6.5c2.1-0.4,4-1.9,4.2-3.4c1.8-13.3,3.9-26.5,5.4-39.8
	C86.1,9.8,84,9,81.2,9.5z"/>
<path fill="#F8F7F0" d="M78.4,3.9c-12.1,3-22.5,5-31.6,12.7c-0.9,0.7-1.7,1.4-2.3,2.2c-0.6-0.7-1.4-1.5-2.3-2.2
	C33.1,9,22.7,6.9,10.6,3.9C8,3.3,6.1,4.2,6.2,5.8c1.5,14.6,3.4,29.2,5,43.8c0.2,1.6,2,3.3,3.9,3.7c8.9,2.1,17.5,4.8,26.3,7.2
	c1.4,0.5,2.4,0.6,3.1,0.5c0.7,0.2,1.7,0,3.1-0.5c8.8-2.4,17.4-5,26.3-7.2c1.9-0.4,3.7-2.1,3.9-3.7c1.6-14.6,3.6-29.2,5-43.8
	C82.9,4.2,80.9,3.3,78.4,3.9z"/>
<path fill="#FFFFFF" d="M74.6,0.2C63.7,3.4,54.4,5.5,46.2,13.6c-0.8,0.7-1.5,1.5-2.1,2.3c-0.6-0.8-1.3-1.5-2.1-2.3
	C33.9,5.5,24.6,3.4,13.8,0.2c-2.3-0.6-4.1,0.3-4,2c1.3,15.5,3,30.9,4.5,46.4c0.2,1.7,1.8,3.4,3.5,3.9c7.9,2.3,15.7,5,23.6,7.6
	c1.2,0.5,2.2,0.7,2.8,0.5c0.6,0.2,1.5,0,2.8-0.5c7.9-2.5,15.6-5.3,23.6-7.6c1.7-0.5,3.3-2.2,3.5-3.9c1.5-15.5,3.2-30.9,4.5-46.4
	C78.7,0.5,76.9-0.4,74.6,0.2z"/>
<linearGradient id="SVGID_1_" gradientUnits="userSpaceOnUse" x1="67.1544" y1="29.5829" x2="43.5118" y2="31.5125">
	<stop  offset="0" style="stop-color:#FFFFFF"/>
	<stop  offset="1" style="stop-color:#000000"/>
</linearGradient>
<path opacity="0.1" fill="url(#SVGID_1_)" d="M47,60.1c7.9-2.5,15.6-5.3,23.6-7.6c1.7-0.5,3.3-2.2,3.5-3.9
	c1.5-15.5,3.2-30.9,4.5-46.4c0.1-1.7-1.7-2.7-4-2C63.7,3.4,54.4,5.5,46.2,13.6c-0.8,0.7-1.5,1.5-2.1,2.3L47,60.1z"/>
<polygon fill="#E93F4B" points="60.7,4.2 61,19.2 63,15.5 65.7,17.9 65.7,2.5 "/>
</svg>
