<?xml version="1.0" encoding="utf-8"?>
<!-- Generator: Adobe Illustrator 18.1.0, SVG Export Plug-In . SVG Version: 6.00 Build 0)  -->
<!DOCTYPE svg PUBLIC "-//W3C//DTD SVG 1.1//EN" "http://www.w3.org/Graphics/SVG/1.1/DTD/svg11.dtd">
<svg version="1.1" id="Layer_1" xmlns="http://www.w3.org/2000/svg" xmlns:xlink="http://www.w3.org/1999/xlink" x="0px" y="0px"
	 viewBox="0 0 660 317.2" enable-background="new 0 0 660 317.2" xml:space="preserve">
<path fill="#83D2E4" d="M134.2,41L96.2,1.1c-1.5-1.5-4.1-1.5-5.6,0L52.7,41c-1.1,1.1-1.4,2.8-0.8,4.2c0.6,1.4,2,2.3,3.5,2.3h9.3
	v14.6v30.1l26.1-25.6c0.1-0.1,0.3-0.2,0.5-0.3c1.3-0.9,3-0.9,4.3,0c0.1,0.1,0.3,0.2,0.5,0.3l26.1,25.6V62.1V47.5h9.3
	c1.5,0,2.9-0.9,3.5-2.3C135.5,43.8,135.2,42.1,134.2,41z"/>
<path fill="#EE3124" d="M174.5,151.6L96,75.7c-1.5-1.4-3.8-1.4-5.2,0l-78.4,76c-1.2,1.1-1.5,2.8-1,4.2c0.6,1.5,2,2.4,3.6,2.4h18.6
	h0.7v72.2c0,2.4,1.9,4.3,4.3,4.3h109.5c2.4,0,4.3-2,4.3-4.3v-72.2h0.7h18.6c1.6,0,3-1,3.6-2.4C176,154.4,175.6,152.7,174.5,151.6z"
	/>
<linearGradient id="SVGID_1_" gradientUnits="userSpaceOnUse" x1="93.4339" y1="2.313518e-05" x2="93.4339" y2="92.166">
	<stop  offset="0" style="stop-color:#FFFFFF"/>
	<stop  offset="1" style="stop-color:#008FC5"/>
</linearGradient>
<path opacity="0.57" fill="url(#SVGID_1_)" d="M134.2,41L96.2,1.1c-1.5-1.5-4.1-1.5-5.6,0L52.7,41c-1.1,1.1-1.4,2.8-0.8,4.2
	c0.6,1.4,2,2.3,3.5,2.3h9.3v14.6v30.1l26.1-25.6c0.1-0.1,0.3-0.2,0.5-0.3c1.3-0.9,3-0.9,4.3,0c0.1,0.1,0.3,0.2,0.5,0.3l26.1,25.6
	V62.1V47.5h9.3c1.5,0,2.9-0.9,3.5-2.3C135.5,43.8,135.2,42.1,134.2,41z"/>
<linearGradient id="SVGID_2_" gradientUnits="userSpaceOnUse" x1="93.4339" y1="2.313518e-05" x2="93.4339" y2="92.166">
	<stop  offset="0.2761" style="stop-color:#FFFFFF"/>
	<stop  offset="0.3459" style="stop-color:#EFF8FB"/>
	<stop  offset="0.4821" style="stop-color:#C6E6F2"/>
	<stop  offset="0.6711" style="stop-color:#83C8E3"/>
	<stop  offset="0.9034" style="stop-color:#28A1CE"/>
	<stop  offset="1" style="stop-color:#008FC5"/>
</linearGradient>
<path opacity="0.57" fill="url(#SVGID_2_)" d="M134.2,41L96.2,1.1c-1.5-1.5-4.1-1.5-5.6,0L52.7,41c-1.1,1.1-1.4,2.8-0.8,4.2
	c0.6,1.4,2,2.3,3.5,2.3h9.3v44.6l26.1-25.6c0.1-0.1,0.3-0.2,0.5-0.3c1.3-0.9,3-0.9,4.3,0c0.1,0.1,0.3,0.2,0.5,0.3l26.1,25.6V47.5
	h9.3c1.5,0,2.9-0.9,3.5-2.3C135.5,43.8,135.2,42.1,134.2,41z"/>
<linearGradient id="SVGID_3_" gradientUnits="userSpaceOnUse" x1="93.4388" y1="74.6445" x2="93.4388" y2="234.831">
	<stop  offset="0" style="stop-color:#FFFFFF"/>
	<stop  offset="1" style="stop-color:#5B4B43"/>
</linearGradient>
<path opacity="0.22" fill="url(#SVGID_3_)" d="M174.5,151.6L96,75.7c-1.5-1.4-3.8-1.4-5.2,0l-78.4,76c-1.2,1.1-1.5,2.8-1,4.2
	c0.6,1.5,2,2.4,3.6,2.4h18.6h0.7v72.2c0,2.4,1.9,4.3,4.3,4.3h109.5c2.4,0,4.3-2,4.3-4.3v-72.2h0.7h18.6c1.6,0,3-1,3.6-2.4
	C176,154.4,175.6,152.7,174.5,151.6z"/>
<g>
	<path fill="#BAE1ED" d="M239.1,224.7l-18.1-6.2c-4.7-1.5-10.4-4.7-10.4-10.9c0-5.8,4.9-10.7,10.9-11l0.5,0c3.2,0,6.3,1.5,8.6,4
		c2.2,2.5,3.3,5.7,2.9,8.8c-0.1,0.5,0.1,0.9,0.4,1.2c0.3,0.3,0.7,0.5,1.2,0.5h36.5c0.9,0,1.6-0.7,1.6-1.6v-43.1
		c0-0.9-0.7-1.6-1.6-1.6h-31.2c-0.9,0-1.6,0.7-1.6,1.6v2.3c-6.1-3.6-11.9-5.7-20.5-5.9c-13.4-0.4-25.7,4.6-34.8,13.8
		c-8.5,8.6-13,19.9-12.9,31.8c0.4,19.7,11.6,34.9,30.8,41.8l22.3,8.4c8,2.9,11.7,6.4,11.9,11.4c0.3,6.3-4.8,11.8-11.6,12.4
		c-0.5,0.1-1.1,0.1-1.7,0.1c-4.8,0-13.9-2.9-14-13.9v-3.5c0-0.9-0.7-1.6-1.6-1.6h-33.1c-0.9,0-1.6,0.7-1.6,1.6v46.8
		c0,0.9,0.7,1.6,1.6,1.6h30c0.9,0,1.6-0.7,1.6-1.6v-1.9c7.4,4.9,13.8,6.8,23.2,6.9l1.2,0c24.5,0,46.1-22,46.1-47.1
		C275.8,248.7,263.1,233,239.1,224.7z"/>
	<path fill="#BAE1ED" d="M390.5,164.9H289.8c-0.9,0-1.6,0.7-1.6,1.6v31.2c0,0.9,0.7,1.6,1.6,1.6h7.5v79.4h-11
		c-0.9,0-1.6,0.7-1.6,1.6v31.8c0,0.9,0.7,1.6,1.6,1.6h67.4c0.9,0,1.6-0.7,1.6-1.6v-31.8c0-0.9-0.7-1.6-1.6-1.6h-14.5v-18.5h33.6
		c0.9,0,1.6-0.7,1.6-1.6v-34.3c0-0.9-0.7-1.6-1.6-1.6h-34.1v-21.4h18.5v13.2c0,0.9,0.7,1.6,1.6,1.6h31.8c0.9,0,1.6-0.7,1.6-1.6
		v-48.1C392.1,165.6,391.4,164.9,390.5,164.9z"/>
	<path fill="#BAE1ED" d="M508.6,164.9H401.5c-0.9,0-1.6,0.7-1.6,1.6v31.2c0,0.9,0.7,1.6,1.6,1.6h8.7v79.4h-14.4
		c-0.9,0-1.6,0.7-1.6,1.6v31.8c0,0.9,0.7,1.6,1.6,1.6h112.8c0.9,0,1.6-0.7,1.6-1.6v-46.2c0-0.9-0.7-1.6-1.6-1.6h-33.8
		c-0.9,0-1.6,0.7-1.6,1.6v11.6h-21.1v-18.8h31.7c0.9,0,1.6-0.7,1.6-1.6v-34.5c0-0.9-0.7-1.6-1.6-1.6h-31.7v-19.4h21.1v12.1
		c0,0.9,0.7,1.6,1.6,1.6h33.8c0.9,0,1.6-0.7,1.6-1.6v-47.1C510.2,165.6,509.5,164.9,508.6,164.9z"/>
	<path fill="#BAE1ED" d="M649.1,278.7h-14.6L620.2,261c14.1-3.6,28.3-16.7,28.3-44c0-32.7-22.4-52.2-59.9-52.2h-65.8
		c-0.9,0-1.6,0.7-1.6,1.6v31.2c0,0.9,0.7,1.6,1.6,1.6h13.4v79.4h-10c-0.9,0-1.6,0.7-1.6,1.6v31.8c0,0.9,0.7,1.6,1.6,1.6h55.1
		c0.9,0,1.6-0.7,1.6-1.6v-31.8c0-0.9-0.7-1.6-1.6-1.6h-4.3v-11.6l32.7,45.9c0.3,0.4,0.8,0.7,1.3,0.7h38c0.9,0,1.6-0.7,1.6-1.6v-31.8
		C650.7,279.4,650,278.7,649.1,278.7z M576.5,200.9h10.3c10.1,0.2,21.7,2.5,22,18.5c0,6.3-2.4,11-7.1,13.9c-4.8,3-11,3.7-15.4,3.7
		l-9.8,0V200.9z"/>
</g>
</svg>
