<?xml version="1.0" encoding="utf-8"?>
<!-- Generator: Adobe Illustrator 18.1.0, SVG Export Plug-In . SVG Version: 6.00 Build 0)  -->
<!DOCTYPE svg PUBLIC "-//W3C//DTD SVG 1.1//EN" "http://www.w3.org/Graphics/SVG/1.1/DTD/svg11.dtd">
<svg version="1.1" id="Layer_1" xmlns="http://www.w3.org/2000/svg" xmlns:xlink="http://www.w3.org/1999/xlink" x="0px" y="0px"
	 viewBox="0 0 374.1 374.1" enable-background="new 0 0 374.1 374.1" xml:space="preserve">
<g>
	<path fill="#83D2E4" d="M248.4,71.9l-57.2-60.1c-2.2-2.3-6.2-2.3-8.4,0l-57.2,60.1c-1.6,1.7-2.1,4.2-1.1,6.3c0.9,2.1,3,3.5,5.3,3.5
		h14v21.9V149l39.3-38.5c0.2-0.2,0.5-0.3,0.7-0.4c2-1.4,4.5-1.4,6.5,0c0.2,0.2,0.5,0.3,0.7,0.5l39.3,38.5v-45.3V81.7h14
		c2.3,0,4.4-1.4,5.3-3.5C250.5,76.1,250,73.6,248.4,71.9z"/>
	<path fill="#EE3124" d="M309.2,238.6L191,124.1c-2.2-2.1-5.7-2.1-7.9,0L65,238.6c-1.7,1.6-2.3,4.2-1.4,6.4c0.9,2.2,3,3.7,5.4,3.7
		h28H98v108.8c0,3.6,2.9,6.5,6.5,6.5h165.1c3.6,0,6.5-2.9,6.5-6.5V248.7h1.1h28c2.4,0,4.5-1.5,5.4-3.7
		C311.5,242.8,310.9,240.3,309.2,238.6z"/>
	<linearGradient id="SVGID_1_" gradientUnits="userSpaceOnUse" x1="187.0584" y1="10.1068" x2="187.0584" y2="149.0133">
		<stop  offset="0" style="stop-color:#FFFFFF"/>
		<stop  offset="1" style="stop-color:#008FC5"/>
	</linearGradient>
	<path opacity="0.57" fill="url(#SVGID_1_)" d="M248.4,71.9l-57.2-60.1c-2.2-2.3-6.2-2.3-8.4,0l-57.2,60.1c-1.6,1.7-2.1,4.2-1.1,6.3
		c0.9,2.1,3,3.5,5.3,3.5h14v21.9V149l39.3-38.5c0.2-0.2,0.5-0.3,0.7-0.4c2-1.4,4.5-1.4,6.5,0c0.2,0.2,0.5,0.3,0.7,0.5l39.3,38.5
		v-45.3V81.7h14c2.3,0,4.4-1.4,5.3-3.5C250.5,76.1,250,73.6,248.4,71.9z"/>
	<linearGradient id="SVGID_2_" gradientUnits="userSpaceOnUse" x1="187.0584" y1="10.1068" x2="187.0584" y2="149.0133">
		<stop  offset="0.2761" style="stop-color:#FFFFFF"/>
		<stop  offset="0.3459" style="stop-color:#EFF8FB"/>
		<stop  offset="0.4821" style="stop-color:#C6E6F2"/>
		<stop  offset="0.6711" style="stop-color:#83C8E3"/>
		<stop  offset="0.9034" style="stop-color:#28A1CE"/>
		<stop  offset="1" style="stop-color:#008FC5"/>
	</linearGradient>
	<path opacity="0.57" fill="url(#SVGID_2_)" d="M248.4,71.9l-57.2-60.1c-2.2-2.3-6.2-2.3-8.4,0l-57.2,60.1c-1.6,1.7-2.1,4.2-1.1,6.3
		c0.9,2.1,3,3.5,5.3,3.5h14V149l39.3-38.5c0.2-0.2,0.5-0.3,0.7-0.4c2-1.4,4.5-1.4,6.5,0c0.2,0.2,0.5,0.3,0.7,0.5l39.3,38.5V81.7h14
		c2.3,0,4.4-1.4,5.3-3.5C250.5,76.1,250,73.6,248.4,71.9z"/>
	<linearGradient id="SVGID_3_" gradientUnits="userSpaceOnUse" x1="187.0653" y1="122.6031" x2="187.0653" y2="364.024">
		<stop  offset="0" style="stop-color:#FFFFFF"/>
		<stop  offset="1" style="stop-color:#5B4B43"/>
	</linearGradient>
	<path opacity="0.22" fill="url(#SVGID_3_)" d="M309.2,238.6L191,124.1c-2.2-2.1-5.7-2.1-7.9,0L65,238.6c-1.7,1.6-2.3,4.2-1.4,6.4
		c0.9,2.2,3,3.7,5.4,3.7h28H98v108.8c0,3.6,2.9,6.5,6.5,6.5h165.1c3.6,0,6.5-2.9,6.5-6.5V248.7h1.1h28c2.4,0,4.5-1.5,5.4-3.7
		C311.5,242.8,310.9,240.3,309.2,238.6z"/>
</g>
</svg>
